# xmcd
#
# Track frame offsets:
#	183
#	11725
#	26835
#	46980
#	58055
#	72565
#	91053
#	104298
#	114738
#	132750
#	146340
#	169478
#	182360
#	194630
#	206023
#
# Disc length: 3074
#
# Revision: 3
# Processed by: cddbd v1.5.1PL0 Copyright (c) Steve Scherf et al.
# Submitted via: CDex 1.51
# Normalized: r2:DSETVAR1,TDELIM( - )
#
DISCID=dc0c000f
DTITLE=Various Artist - Lo Mejor del Soul vol.3 CD2
DYEAR=1994
DGENRE=Soul
TTITLE0=WILSON PICKET - If You Need Me
TTITLE1=BEN E KING - Supernatural Thing
TTITLE2=THE STAPLE SINGERS - I´ll Take You There
TTITLE3=OTIS REDDING - Remember Me
TTITLE4=EDDIE HOLMAN - (Hey There) Lonely Girl
TTITLE5=MEL and TIM - Starting All Over Again
TTITLE6=JACKIE WILSON - Your Love Keeps Lifting Me Higher And Higher
TTITLE7=BARBARA GEORGE - I Know
TTITLE8=AARON NEVILLE - Feelings
TTITLE9=JIMMY RUFFIN - What Becomes Of The Broken Hearted
TTITLE10=BOBBY WOMACK - That´s The Way I Feel About Cha
TTITLE11=MARTHA REEVES - Jimmy Mack
TTITLE12=SAM COOKE - When I Fall In Love
TTITLE13=DINAH WASHINGTON - What A Difference A Day Makes
TTITLE14=CHI-LITES - Have You Seen Her
EXTD=YEAR: 1994
EXTT0=
EXTT1=
EXTT2=
EXTT3=
EXTT4=
EXTT5=
EXTT6=
EXTT7=
EXTT8=
EXTT9=
EXTT10=
EXTT11=
EXTT12=
EXTT13=
EXTT14=
PLAYORDER=
